<svg width="24" height="24" viewBox="0 0 24 24" fill="none" xmlns="http://www.w3.org/2000/svg">
<path d="M17.5202 3H7.44003C7.05811 3 6.69183 3.15172 6.42177 3.42177C6.15172 3.69183 6 4.05811 6 4.44003V20.2803C6.00006 20.4088 6.03451 20.535 6.09977 20.6457C6.16503 20.7564 6.25873 20.8476 6.37113 20.9098C6.48353 20.9721 6.61055 21.0031 6.739 20.9998C6.86745 20.9964 6.99266 20.9587 7.10162 20.8906L12.4801 17.529L17.8595 20.8906C17.9685 20.9584 18.0936 20.9959 18.2219 20.9992C18.3502 21.0025 18.4771 20.9714 18.5893 20.9091C18.7016 20.8469 18.7952 20.7558 18.8604 20.6452C18.9256 20.5347 18.9601 20.4087 18.9603 20.2803V4.44003C18.9603 4.05811 18.8085 3.69183 18.5385 3.42177C18.2684 3.15172 17.9021 3 17.5202 3ZM17.5202 18.9816L12.8608 16.0701C12.7464 15.9985 12.6142 15.9606 12.4792 15.9606C12.3443 15.9606 12.2121 15.9985 12.0976 16.0701L7.44003 18.9816V4.44003H17.5202V18.9816Z" fill="#17181A"/>
</svg>
