<svg  viewBox="0 0 29 28" fill="none" xmlns="http://www.w3.org/2000/svg">
<path d="M14.4433 20.2417C15.8433 20.2417 17.0197 19.7653 17.9724 18.8125C18.9252 17.8597 19.4016 16.6833 19.4016 15.2833C19.4016 13.8639 18.9252 12.6826 17.9724 11.7396C17.0197 10.7965 15.8433 10.325 14.4433 10.325C13.0238 10.325 11.8426 10.7965 10.8995 11.7396C9.95647 12.6826 9.48495 13.8639 9.48495 15.2833C9.48495 16.6833 9.95647 17.8597 10.8995 18.8125C11.8426 19.7653 13.0238 20.2417 14.4433 20.2417ZM4.52661 24.5C4.05994 24.5 3.65161 24.325 3.30161 23.975C2.95161 23.625 2.77661 23.2167 2.77661 22.75V7.7875C2.77661 7.34028 2.95161 6.93681 3.30161 6.57708C3.65161 6.21736 4.05994 6.0375 4.52661 6.0375H8.81411L10.9433 3.5H17.9433L20.0724 6.0375H24.3599C24.8072 6.0375 25.2106 6.21736 25.5704 6.57708C25.9301 6.93681 26.1099 7.34028 26.1099 7.7875V22.75C26.1099 23.2167 25.9301 23.625 25.5704 23.975C25.2106 24.325 24.8072 24.5 24.3599 24.5H4.52661Z" fill="#AEB5BA"/>
</svg>
