<svg width="32" height="32" viewBox="0 0 32 32" fill="none" xmlns="http://www.w3.org/2000/svg">
<g clip-path="url(#clip0_4694_107199)">
<path d="M16 32C24.8366 32 32 24.8366 32 16C32 7.16344 24.8366 0 16 0C7.16344 0 0 7.16344 0 16C0 24.8366 7.16344 32 16 32Z" fill="white"/>
<path d="M16 31.5C24.5604 31.5 31.5 24.5604 31.5 16C31.5 7.43959 24.5604 0.5 16 0.5C7.43959 0.5 0.5 7.43959 0.5 16C0.5 24.5604 7.43959 31.5 16 31.5Z" stroke="#E5E7EA"/>
<path fill-rule="evenodd" clip-rule="evenodd" d="M24.9996 16.388C24.9982 15.7585 24.9437 15.1303 24.8366 14.51H16.1836V18.061H21.1226C21.0209 18.6245 20.8054 19.1612 20.4892 19.6386C20.173 20.1159 19.7628 20.5237 19.2836 20.837V23.143H22.2526C23.1595 22.2734 23.8727 21.2223 24.3457 20.0583C24.8187 18.8943 25.0408 17.6437 24.9976 16.388H24.9996Z" fill="#3E82F1"/>
<path fill-rule="evenodd" clip-rule="evenodd" d="M16.1835 25.3681C18.4198 25.4268 20.5945 24.6315 22.2655 23.1441L19.2965 20.8381C18.3695 21.4337 17.2861 21.7394 16.1845 21.7161C15.0388 21.7017 13.9265 21.3287 13.0038 20.6494C12.0811 19.9701 11.3945 19.0188 11.0405 17.9291H7.97949V20.3071C8.7427 21.828 9.91374 23.1067 11.3618 24.0004C12.8098 24.8942 14.4779 25.3677 16.1795 25.3681H16.1835Z" fill="#32A753"/>
<path fill-rule="evenodd" clip-rule="evenodd" d="M11.0406 17.928C10.6596 16.7959 10.6596 15.5702 11.0406 14.438V12.061H7.97963C7.33551 13.3398 7 14.7517 7 16.1835C7 17.6154 7.33551 19.0273 7.97963 20.306L11.0406 17.928Z" fill="#F9BB00"/>
<path fill-rule="evenodd" clip-rule="evenodd" d="M16.1835 10.6531C16.8304 10.641 17.4733 10.7565 18.0756 10.9929C18.6778 11.2293 19.2276 11.5821 19.6935 12.0311L22.3265 9.40005C20.6682 7.83271 18.4651 6.97201 16.1835 7.00005C14.4812 6.99972 12.8123 7.47289 11.3635 8.36665C9.91467 9.26042 8.743 10.5396 7.97949 12.0611L11.0505 14.4391C11.4011 13.3495 12.0853 12.3977 13.0064 11.7182C13.9276 11.0388 15.039 10.6662 16.1835 10.6531Z" fill="#E74133"/>
</g>
<defs>
<clipPath id="clip0_4694_107199">
<rect width="32" height="32" fill="white"/>
</clipPath>
</defs>
</svg>
