<svg width="24" height="24" viewBox="0 0 24 24" fill="none" xmlns="http://www.w3.org/2000/svg">
<path fill-rule="evenodd" clip-rule="evenodd" d="M20.9996 12.388C20.9982 11.7585 20.9437 11.1303 20.8366 10.51H12.1836V14.061H17.1226C17.0209 14.6245 16.8054 15.1612 16.4892 15.6386C16.173 16.1159 15.7628 16.5237 15.2836 16.837V19.143H18.2526C19.1595 18.2734 19.8727 17.2223 20.3457 16.0583C20.8187 14.8943 21.0408 13.6437 20.9976 12.388H20.9996Z" fill="#3E82F1"/>
<path fill-rule="evenodd" clip-rule="evenodd" d="M12.1835 21.3681C14.4198 21.4268 16.5945 20.6315 18.2655 19.1441L15.2965 16.8381C14.3695 17.4337 13.2861 17.7394 12.1845 17.7161C11.0388 17.7017 9.92648 17.3287 9.0038 16.6494C8.08113 15.9701 7.39452 15.0188 7.04049 13.9291H3.97949V16.3071C4.7427 17.828 5.91374 19.1067 7.36179 20.0004C8.80983 20.8942 10.4779 21.3677 12.1795 21.3681H12.1835Z" fill="#32A753"/>
<path fill-rule="evenodd" clip-rule="evenodd" d="M7.04063 13.928C6.65963 12.7959 6.65963 11.5702 7.04063 10.438V8.06104H3.97963C3.33551 9.3398 3 10.7517 3 12.1835C3 13.6154 3.33551 15.0273 3.97963 16.306L7.04063 13.928Z" fill="#F9BB00"/>
<path fill-rule="evenodd" clip-rule="evenodd" d="M12.1835 6.65305C12.8304 6.64098 13.4733 6.75646 14.0756 6.9929C14.6778 7.22934 15.2276 7.58211 15.6935 8.03105L18.3265 5.40005C16.6682 3.83271 14.4651 2.97201 12.1835 3.00005C10.4812 2.99972 8.81231 3.47289 7.36349 4.36665C5.91467 5.26042 4.743 6.53956 3.97949 8.06105L7.05049 10.4391C7.40105 9.34947 8.08528 8.39766 9.00642 7.71825C9.92756 7.03884 11.039 6.6662 12.1835 6.65305Z" fill="#E74133"/>
</svg>
