<svg width="20" height="20" viewBox="0 0 20 20" fill="none" xmlns="http://www.w3.org/2000/svg">
<rect width="20" height="20" fill="#3D3D3D"/>
<rect width="1680" height="1081" transform="translate(-496 -1027)" fill="#FCFBFA"/>
<mask id="path-1-inside-1_405_3542" fill="white">
<path d="M-236 -1027H44V54H-236V-1027Z"/>
</mask>
<path d="M-236 -1027H44V54H-236V-1027Z" fill="white"/>
<rect x="-224" y="-22" width="256" height="64" rx="32" fill="white"/>
<path d="M4.16667 11.6667C5.08714 11.6667 5.83333 10.9205 5.83333 10C5.83333 9.07957 5.08714 8.33337 4.16667 8.33337C3.24619 8.33337 2.5 9.07957 2.5 10C2.5 10.9205 3.24619 11.6667 4.16667 11.6667Z" fill="#888E94"/>
<path d="M9.99992 11.6667C10.9204 11.6667 11.6666 10.9205 11.6666 10C11.6666 9.07957 10.9204 8.33337 9.99992 8.33337C9.07944 8.33337 8.33325 9.07957 8.33325 10C8.33325 10.9205 9.07944 11.6667 9.99992 11.6667Z" fill="#888E94"/>
<path d="M15.8334 11.6667C16.7539 11.6667 17.5001 10.9205 17.5001 10C17.5001 9.07957 16.7539 8.33337 15.8334 8.33337C14.9129 8.33337 14.1667 9.07957 14.1667 10C14.1667 10.9205 14.9129 11.6667 15.8334 11.6667Z" fill="#888E94"/>
<path d="M43 -1027V54H45V-1027H43Z" fill="#F1F3F5" mask="url(#path-1-inside-1_405_3542)"/>
</svg>
